<?xml version="1.0" encoding="UTF-8"?>
<svg stroke-dasharray="none" shape-rendering="auto"
    font-family="'Dialog'" width="629" text-rendering="auto"
    fill-opacity="1" color-rendering="auto" color-interpolation="auto"
    font-size="12" fill="black" stroke="black" image-rendering="auto"
    stroke-miterlimit="10" stroke-linecap="square"
    stroke-linejoin="miter" font-style="normal" height="565"
    stroke-width="1" stroke-dashoffset="0" font-weight="normal" stroke-opacity="1">
    <!--Generated by the Batik Graphics2D SVG Generator-->
    <defs id="genericDefs"/>
    <g>
        <defs id="defs1">
            <clipPath clipPathUnits="userSpaceOnUse" id="clipPath1">
                <path d="M-1 -1 L629 -1 L629 565 L-1 565 L-1 -1 Z"/>
            </clipPath>
            <clipPath clipPathUnits="userSpaceOnUse" id="clipPath2">
                <path d="M5 6 L58 6 L58 21 L5 21 L5 6 Z"/>
            </clipPath>
            <clipPath clipPathUnits="userSpaceOnUse" id="clipPath3">
                <path d="M58 5 L169 5 L169 23 L58 23 L58 5 Z"/>
            </clipPath>
            <clipPath clipPathUnits="userSpaceOnUse" id="clipPath4">
                <path d="M95 431 L177 431 L177 497 L95 497 L95 431 Z"/>
            </clipPath>
            <clipPath clipPathUnits="userSpaceOnUse" id="clipPath5">
                <path d="M120 495 L151 495 L151 513 L120 513 L120 495 Z"/>
            </clipPath>
            <clipPath clipPathUnits="userSpaceOnUse" id="clipPath6">
                <path d="M95 274 L177 274 L177 340 L95 340 L95 274 Z"/>
            </clipPath>
            <clipPath clipPathUnits="userSpaceOnUse" id="clipPath7">
                <path d="M122 338 L150 338 L150 356 L122 356 L122 338 Z"/>
            </clipPath>
            <clipPath clipPathUnits="userSpaceOnUse" id="clipPath8">
                <path d="M95 116 L177 116 L177 182 L95 182 L95 116 Z"/>
            </clipPath>
            <clipPath clipPathUnits="userSpaceOnUse" id="clipPath9">
                <path d="M121 180 L151 180 L151 198 L121 198 L121 180 Z"/>
            </clipPath>
            <clipPath clipPathUnits="userSpaceOnUse" id="clipPath10">
                <path d="M287 107 L589 107 L589 525 L287 525 L287 107 Z"/>
            </clipPath>
            <clipPath clipPathUnits="userSpaceOnUse" id="clipPath11">
                <path d="M299 116 L421 116 L421 198 L299 198 L299 116 Z"/>
            </clipPath>
            <clipPath clipPathUnits="userSpaceOnUse" id="clipPath12">
                <path d="M327 148 L393 148 L393 166 L327 166 L327 148 Z"/>
            </clipPath>
            <clipPath clipPathUnits="userSpaceOnUse" id="clipPath13">
                <path d="M299 274 L421 274 L421 356 L299 356 L299 274 Z"/>
            </clipPath>
            <clipPath clipPathUnits="userSpaceOnUse" id="clipPath14">
                <path d="M327 306 L393 306 L393 324 L327 324 L327 306 Z"/>
            </clipPath>
            <clipPath clipPathUnits="userSpaceOnUse" id="clipPath15">
                <path d="M455 195 L577 195 L577 277 L455 277 L455 195 Z"/>
            </clipPath>
            <clipPath clipPathUnits="userSpaceOnUse" id="clipPath16">
                <path d="M483 227 L549 227 L549 245 L483 245 L483 227 Z"/>
            </clipPath>
            <clipPath clipPathUnits="userSpaceOnUse" id="clipPath17">
                <path d="M299 432 L421 432 L421 514 L299 514 L299 432 Z"/>
            </clipPath>
            <clipPath clipPathUnits="userSpaceOnUse" id="clipPath18">
                <path d="M327 464 L393 464 L393 482 L327 482 L327 464 Z"/>
            </clipPath>
            <clipPath clipPathUnits="userSpaceOnUse" id="clipPath19">
                <path d="M455 353 L577 353 L577 435 L455 435 L455 353 Z"/>
            </clipPath>
            <clipPath clipPathUnits="userSpaceOnUse" id="clipPath20">
                <path d="M483 385 L549 385 L549 403 L483 403 L483 385 Z"/>
            </clipPath>
        </defs>
        <g font-size="11" fill="white" stroke-linejoin="round"
            font-family="'Tahoma'" stroke="white" stroke-width="1.1" stroke-miterlimit="0">
            <rect x="0" y="0" clip-path="url(#clipPath1)" width="628"
                height="564" stroke="none"/>
            <line clip-path="url(#clipPath1)" fill="none" x1="1"
                x2="173" y1="30" y2="30" stroke="black"/>
            <line clip-path="url(#clipPath1)" fill="none" x1="173"
                x2="180" y1="30" y2="16" stroke="black"/>
            <line clip-path="url(#clipPath1)" fill="none" x1="180"
                x2="180" y1="16" y2="1" stroke="black"/>
            <text x="6" y="18" clip-path="url(#clipPath2)" fill="black"
                stroke="none" font-weight="bold" xml:space="preserve">package </text>
        </g>
        <g stroke-miterlimit="0" font-size="13" stroke-width="1.1" stroke-linejoin="round">
            <text xml:space="preserve" x="59" y="20"
                clip-path="url(#clipPath3)" stroke="none">UseCaseDiagram</text>
            <circle fill="none" r="8" clip-path="url(#clipPath4)"
                cx="136" cy="440"/>
        </g>
        <g font-size="11" fill="white" stroke-linejoin="round"
            font-family="'Tahoma'" stroke="white" stroke-width="1.1" stroke-miterlimit="0">
            <circle r="7.5" clip-path="url(#clipPath4)" cx="135.5"
                cy="439.5" stroke="none"/>
            <line clip-path="url(#clipPath4)" fill="none" x1="136"
                x2="136" y1="448" y2="472" stroke="black"/>
            <line clip-path="url(#clipPath4)" fill="none" x1="120"
                x2="152" y1="456" y2="456" stroke="black"/>
            <line clip-path="url(#clipPath4)" fill="none" x1="120"
                x2="136" y1="496" y2="472" stroke="black"/>
            <line clip-path="url(#clipPath4)" fill="none" x1="152"
                x2="136" y1="496" y2="472" stroke="black"/>
        </g>
        <g stroke-miterlimit="0" font-size="13" stroke-width="1.1" stroke-linejoin="round">
            <text xml:space="preserve" x="121" y="510"
                clip-path="url(#clipPath5)" stroke="none">User</text>
            <circle fill="none" r="8" clip-path="url(#clipPath6)"
                cx="136" cy="283"/>
        </g>
        <g font-size="11" fill="white" stroke-linejoin="round"
            font-family="'Tahoma'" stroke="white" stroke-width="1.1" stroke-miterlimit="0">
            <circle r="7.5" clip-path="url(#clipPath6)" cx="135.5"
                cy="282.5" stroke="none"/>
            <line clip-path="url(#clipPath6)" fill="none" x1="136"
                x2="136" y1="291" y2="315" stroke="black"/>
            <line clip-path="url(#clipPath6)" fill="none" x1="120"
                x2="152" y1="299" y2="299" stroke="black"/>
            <line clip-path="url(#clipPath6)" fill="none" x1="120"
                x2="136" y1="339" y2="315" stroke="black"/>
            <line clip-path="url(#clipPath6)" fill="none" x1="152"
                x2="136" y1="339" y2="315" stroke="black"/>
        </g>
        <g stroke-miterlimit="0" font-size="13" stroke-width="1.1" stroke-linejoin="round">
            <text xml:space="preserve" x="123" y="353"
                clip-path="url(#clipPath7)" stroke="none">Staff</text>
            <circle fill="none" r="8" clip-path="url(#clipPath8)"
                cx="136" cy="125"/>
        </g>
        <g font-size="11" fill="white" stroke-linejoin="round"
            font-family="'Tahoma'" stroke="white" stroke-width="1.1" stroke-miterlimit="0">
            <circle r="7.5" clip-path="url(#clipPath8)" cx="135.5"
                cy="124.5" stroke="none"/>
            <line clip-path="url(#clipPath8)" fill="none" x1="136"
                x2="136" y1="133" y2="157" stroke="black"/>
            <line clip-path="url(#clipPath8)" fill="none" x1="120"
                x2="152" y1="141" y2="141" stroke="black"/>
            <line clip-path="url(#clipPath8)" fill="none" x1="120"
                x2="136" y1="181" y2="157" stroke="black"/>
            <line clip-path="url(#clipPath8)" fill="none" x1="152"
                x2="136" y1="181" y2="157" stroke="black"/>
        </g>
        <g stroke-miterlimit="0" font-size="13" stroke-width="1.1" stroke-linejoin="round">
            <text xml:space="preserve" x="122" y="195"
                clip-path="url(#clipPath9)" stroke="none">DBA</text>
        </g>
        <g font-size="11" fill="white" stroke-linejoin="round"
            font-family="'Tahoma'" stroke="white" stroke-width="1.1" stroke-miterlimit="0">
            <rect x="288" y="108" clip-path="url(#clipPath10)"
                width="300" height="416" stroke="none"/>
            <rect x="289" y="109" clip-path="url(#clipPath10)"
                fill="none" width="298" height="414" stroke="black" stroke-width="2.1"/>
            <ellipse clip-path="url(#clipPath11)" rx="59.5" cx="359.5"
                ry="39.5" cy="156.5" stroke="none"/>
            <ellipse clip-path="url(#clipPath11)" fill="none" rx="59.5"
                cx="359.5" ry="39.5" cy="156.5" stroke="black"/>
        </g>
        <g stroke-miterlimit="0" font-size="13" stroke-width="1.1" stroke-linejoin="round">
            <text xml:space="preserve" x="328" y="163"
                clip-path="url(#clipPath12)" stroke="none">UseCase1</text>
        </g>
        <g font-size="11" fill="white" stroke-linejoin="round"
            font-family="'Tahoma'" stroke="white" stroke-width="1.1" stroke-miterlimit="0">
            <ellipse clip-path="url(#clipPath13)" rx="59.5" cx="359.5"
                ry="39.5" cy="314.5" stroke="none"/>
            <ellipse clip-path="url(#clipPath13)" fill="none" rx="59.5"
                cx="359.5" ry="39.5" cy="314.5" stroke="black"/>
        </g>
        <g stroke-miterlimit="0" font-size="13" stroke-width="1.1" stroke-linejoin="round">
            <text xml:space="preserve" x="328" y="321"
                clip-path="url(#clipPath14)" stroke="none">UseCase3</text>
        </g>
        <g font-size="11" fill="white" stroke-linejoin="round"
            font-family="'Tahoma'" stroke="white" stroke-width="1.1" stroke-miterlimit="0">
            <ellipse clip-path="url(#clipPath15)" rx="59.5" cx="515.5"
                ry="39.5" cy="235.5" stroke="none"/>
            <ellipse clip-path="url(#clipPath15)" fill="none" rx="59.5"
                cx="515.5" ry="39.5" cy="235.5" stroke="black"/>
        </g>
        <g stroke-miterlimit="0" font-size="13" stroke-width="1.1" stroke-linejoin="round">
            <text xml:space="preserve" x="484" y="242"
                clip-path="url(#clipPath16)" stroke="none">UseCase4</text>
        </g>
        <g font-size="11" fill="white" stroke-linejoin="round"
            font-family="'Tahoma'" stroke="white" stroke-width="1.1" stroke-miterlimit="0">
            <ellipse clip-path="url(#clipPath17)" rx="59.5" cx="359.5"
                ry="39.5" cy="472.5" stroke="none"/>
            <ellipse clip-path="url(#clipPath17)" fill="none" rx="59.5"
                cx="359.5" ry="39.5" cy="472.5" stroke="black"/>
        </g>
        <g stroke-miterlimit="0" font-size="13" stroke-width="1.1" stroke-linejoin="round">
            <text xml:space="preserve" x="328" y="479"
                clip-path="url(#clipPath18)" stroke="none">UseCase5</text>
        </g>
        <g font-size="11" fill="white" stroke-linejoin="round"
            font-family="'Tahoma'" stroke="white" stroke-width="1.1" stroke-miterlimit="0">
            <ellipse clip-path="url(#clipPath19)" rx="59.5" cx="515.5"
                ry="39.5" cy="393.5" stroke="none"/>
            <ellipse clip-path="url(#clipPath19)" fill="none" rx="59.5"
                cx="515.5" ry="39.5" cy="393.5" stroke="black"/>
        </g>
        <g stroke-miterlimit="0" font-size="13" stroke-width="1.1" stroke-linejoin="round">
            <text xml:space="preserve" x="484" y="400"
                clip-path="url(#clipPath20)" stroke="none">UseCase6</text>
            <rect x="0" y="0" clip-path="url(#clipPath1)" fill="none"
                width="627" height="563"/>
        </g>
        <g font-size="11" fill="silver" stroke-linejoin="round"
            font-family="'Tahoma'" stroke-dasharray="1,5"
            stroke="silver" stroke-width="1.1" stroke-miterlimit="0">
            <line clip-path="url(#clipPath1)" fill="none" x1="0" x2="0"
                y1="0" y2="564"/>
            <line clip-path="url(#clipPath1)" fill="none" x1="12"
                x2="12" y1="0" y2="564"/>
            <line clip-path="url(#clipPath1)" fill="none" x1="24"
                x2="24" y1="0" y2="564"/>
            <line clip-path="url(#clipPath1)" fill="none" x1="36"
                x2="36" y1="0" y2="564"/>
            <line clip-path="url(#clipPath1)" fill="none" x1="48"
                x2="48" y1="0" y2="564"/>
            <line clip-path="url(#clipPath1)" fill="none" x1="60"
                x2="60" y1="0" y2="564"/>
            <line clip-path="url(#clipPath1)" fill="none" x1="72"
                x2="72" y1="0" y2="564"/>
            <line clip-path="url(#clipPath1)" fill="none" x1="84"
                x2="84" y1="0" y2="564"/>
            <line clip-path="url(#clipPath1)" fill="none" x1="96"
                x2="96" y1="0" y2="564"/>
            <line clip-path="url(#clipPath1)" fill="none" x1="108"
                x2="108" y1="0" y2="564"/>
            <line clip-path="url(#clipPath1)" fill="none" x1="120"
                x2="120" y1="0" y2="564"/>
            <line clip-path="url(#clipPath1)" fill="none" x1="132"
                x2="132" y1="0" y2="564"/>
            <line clip-path="url(#clipPath1)" fill="none" x1="144"
                x2="144" y1="0" y2="564"/>
            <line clip-path="url(#clipPath1)" fill="none" x1="156"
                x2="156" y1="0" y2="564"/>
            <line clip-path="url(#clipPath1)" fill="none" x1="168"
                x2="168" y1="0" y2="564"/>
            <line clip-path="url(#clipPath1)" fill="none" x1="180"
                x2="180" y1="0" y2="564"/>
            <line clip-path="url(#clipPath1)" fill="none" x1="192"
                x2="192" y1="0" y2="564"/>
            <line clip-path="url(#clipPath1)" fill="none" x1="204"
                x2="204" y1="0" y2="564"/>
            <line clip-path="url(#clipPath1)" fill="none" x1="216"
                x2="216" y1="0" y2="564"/>
            <line clip-path="url(#clipPath1)" fill="none" x1="228"
                x2="228" y1="0" y2="564"/>
            <line clip-path="url(#clipPath1)" fill="none" x1="240"
                x2="240" y1="0" y2="564"/>
            <line clip-path="url(#clipPath1)" fill="none" x1="252"
                x2="252" y1="0" y2="564"/>
            <line clip-path="url(#clipPath1)" fill="none" x1="264"
                x2="264" y1="0" y2="564"/>
            <line clip-path="url(#clipPath1)" fill="none" x1="276"
                x2="276" y1="0" y2="564"/>
            <line clip-path="url(#clipPath1)" fill="none" x1="288"
                x2="288" y1="0" y2="564"/>
            <line clip-path="url(#clipPath1)" fill="none" x1="300"
                x2="300" y1="0" y2="564"/>
            <line clip-path="url(#clipPath1)" fill="none" x1="312"
                x2="312" y1="0" y2="564"/>
            <line clip-path="url(#clipPath1)" fill="none" x1="324"
                x2="324" y1="0" y2="564"/>
            <line clip-path="url(#clipPath1)" fill="none" x1="336"
                x2="336" y1="0" y2="564"/>
            <line clip-path="url(#clipPath1)" fill="none" x1="348"
                x2="348" y1="0" y2="564"/>
            <line clip-path="url(#clipPath1)" fill="none" x1="360"
                x2="360" y1="0" y2="564"/>
            <line clip-path="url(#clipPath1)" fill="none" x1="372"
                x2="372" y1="0" y2="564"/>
            <line clip-path="url(#clipPath1)" fill="none" x1="384"
                x2="384" y1="0" y2="564"/>
            <line clip-path="url(#clipPath1)" fill="none" x1="396"
                x2="396" y1="0" y2="564"/>
            <line clip-path="url(#clipPath1)" fill="none" x1="408"
                x2="408" y1="0" y2="564"/>
            <line clip-path="url(#clipPath1)" fill="none" x1="420"
                x2="420" y1="0" y2="564"/>
            <line clip-path="url(#clipPath1)" fill="none" x1="432"
                x2="432" y1="0" y2="564"/>
            <line clip-path="url(#clipPath1)" fill="none" x1="444"
                x2="444" y1="0" y2="564"/>
            <line clip-path="url(#clipPath1)" fill="none" x1="456"
                x2="456" y1="0" y2="564"/>
            <line clip-path="url(#clipPath1)" fill="none" x1="468"
                x2="468" y1="0" y2="564"/>
            <line clip-path="url(#clipPath1)" fill="none" x1="480"
                x2="480" y1="0" y2="564"/>
            <line clip-path="url(#clipPath1)" fill="none" x1="492"
                x2="492" y1="0" y2="564"/>
            <line clip-path="url(#clipPath1)" fill="none" x1="504"
                x2="504" y1="0" y2="564"/>
            <line clip-path="url(#clipPath1)" fill="none" x1="516"
                x2="516" y1="0" y2="564"/>
            <line clip-path="url(#clipPath1)" fill="none" x1="528"
                x2="528" y1="0" y2="564"/>
            <line clip-path="url(#clipPath1)" fill="none" x1="540"
                x2="540" y1="0" y2="564"/>
            <line clip-path="url(#clipPath1)" fill="none" x1="552"
                x2="552" y1="0" y2="564"/>
            <line clip-path="url(#clipPath1)" fill="none" x1="564"
                x2="564" y1="0" y2="564"/>
            <line clip-path="url(#clipPath1)" fill="none" x1="576"
                x2="576" y1="0" y2="564"/>
            <line clip-path="url(#clipPath1)" fill="none" x1="588"
                x2="588" y1="0" y2="564"/>
            <line clip-path="url(#clipPath1)" fill="none" x1="600"
                x2="600" y1="0" y2="564"/>
            <line clip-path="url(#clipPath1)" fill="none" x1="612"
                x2="612" y1="0" y2="564"/>
            <line clip-path="url(#clipPath1)" fill="none" x1="624"
                x2="624" y1="0" y2="564"/>
            <line clip-path="url(#clipPath1)" fill="none" x1="0"
                x2="628" y1="0" y2="0"/>
            <line clip-path="url(#clipPath1)" fill="none" x1="0"
                x2="628" y1="12" y2="12"/>
            <line clip-path="url(#clipPath1)" fill="none" x1="0"
                x2="628" y1="24" y2="24"/>
            <line clip-path="url(#clipPath1)" fill="none" x1="0"
                x2="628" y1="36" y2="36"/>
            <line clip-path="url(#clipPath1)" fill="none" x1="0"
                x2="628" y1="48" y2="48"/>
            <line clip-path="url(#clipPath1)" fill="none" x1="0"
                x2="628" y1="60" y2="60"/>
            <line clip-path="url(#clipPath1)" fill="none" x1="0"
                x2="628" y1="72" y2="72"/>
            <line clip-path="url(#clipPath1)" fill="none" x1="0"
                x2="628" y1="84" y2="84"/>
            <line clip-path="url(#clipPath1)" fill="none" x1="0"
                x2="628" y1="96" y2="96"/>
            <line clip-path="url(#clipPath1)" fill="none" x1="0"
                x2="628" y1="108" y2="108"/>
            <line clip-path="url(#clipPath1)" fill="none" x1="0"
                x2="628" y1="120" y2="120"/>
            <line clip-path="url(#clipPath1)" fill="none" x1="0"
                x2="628" y1="132" y2="132"/>
            <line clip-path="url(#clipPath1)" fill="none" x1="0"
                x2="628" y1="144" y2="144"/>
            <line clip-path="url(#clipPath1)" fill="none" x1="0"
                x2="628" y1="156" y2="156"/>
            <line clip-path="url(#clipPath1)" fill="none" x1="0"
                x2="628" y1="168" y2="168"/>
            <line clip-path="url(#clipPath1)" fill="none" x1="0"
                x2="628" y1="180" y2="180"/>
            <line clip-path="url(#clipPath1)" fill="none" x1="0"
                x2="628" y1="192" y2="192"/>
            <line clip-path="url(#clipPath1)" fill="none" x1="0"
                x2="628" y1="204" y2="204"/>
            <line clip-path="url(#clipPath1)" fill="none" x1="0"
                x2="628" y1="216" y2="216"/>
            <line clip-path="url(#clipPath1)" fill="none" x1="0"
                x2="628" y1="228" y2="228"/>
            <line clip-path="url(#clipPath1)" fill="none" x1="0"
                x2="628" y1="240" y2="240"/>
            <line clip-path="url(#clipPath1)" fill="none" x1="0"
                x2="628" y1="252" y2="252"/>
            <line clip-path="url(#clipPath1)" fill="none" x1="0"
                x2="628" y1="264" y2="264"/>
            <line clip-path="url(#clipPath1)" fill="none" x1="0"
                x2="628" y1="276" y2="276"/>
            <line clip-path="url(#clipPath1)" fill="none" x1="0"
                x2="628" y1="288" y2="288"/>
            <line clip-path="url(#clipPath1)" fill="none" x1="0"
                x2="628" y1="300" y2="300"/>
            <line clip-path="url(#clipPath1)" fill="none" x1="0"
                x2="628" y1="312" y2="312"/>
            <line clip-path="url(#clipPath1)" fill="none" x1="0"
                x2="628" y1="324" y2="324"/>
            <line clip-path="url(#clipPath1)" fill="none" x1="0"
                x2="628" y1="336" y2="336"/>
            <line clip-path="url(#clipPath1)" fill="none" x1="0"
                x2="628" y1="348" y2="348"/>
            <line clip-path="url(#clipPath1)" fill="none" x1="0"
                x2="628" y1="360" y2="360"/>
            <line clip-path="url(#clipPath1)" fill="none" x1="0"
                x2="628" y1="372" y2="372"/>
            <line clip-path="url(#clipPath1)" fill="none" x1="0"
                x2="628" y1="384" y2="384"/>
            <line clip-path="url(#clipPath1)" fill="none" x1="0"
                x2="628" y1="396" y2="396"/>
            <line clip-path="url(#clipPath1)" fill="none" x1="0"
                x2="628" y1="408" y2="408"/>
            <line clip-path="url(#clipPath1)" fill="none" x1="0"
                x2="628" y1="420" y2="420"/>
            <line clip-path="url(#clipPath1)" fill="none" x1="0"
                x2="628" y1="432" y2="432"/>
            <line clip-path="url(#clipPath1)" fill="none" x1="0"
                x2="628" y1="444" y2="444"/>
            <line clip-path="url(#clipPath1)" fill="none" x1="0"
                x2="628" y1="456" y2="456"/>
            <line clip-path="url(#clipPath1)" fill="none" x1="0"
                x2="628" y1="468" y2="468"/>
            <line clip-path="url(#clipPath1)" fill="none" x1="0"
                x2="628" y1="480" y2="480"/>
            <line clip-path="url(#clipPath1)" fill="none" x1="0"
                x2="628" y1="492" y2="492"/>
            <line clip-path="url(#clipPath1)" fill="none" x1="0"
                x2="628" y1="504" y2="504"/>
            <line clip-path="url(#clipPath1)" fill="none" x1="0"
                x2="628" y1="516" y2="516"/>
            <line clip-path="url(#clipPath1)" fill="none" x1="0"
                x2="628" y1="528" y2="528"/>
            <line clip-path="url(#clipPath1)" fill="none" x1="0"
                x2="628" y1="540" y2="540"/>
            <line clip-path="url(#clipPath1)" fill="none" x1="0"
                x2="628" y1="552" y2="552"/>
        </g>
    </g>
</svg>
